<svg xmlns="http://www.w3.org/2000/svg" viewBox="0 0 267 267" fill="none"><g id="atom/firstUploadSymbol"><circle id="Ellipse 23" cx="133.5" cy="133.5" r="133.5" fill="#D9D9D9"/><g id="atom/Icon/CloudDownload"><g id="cloud_download" clip-path="url(#clip0_1421_17272)"><path id="Vector" d="M159.031 126.559C156.623 114.34 145.892 105.167 133 105.167C122.765 105.167 113.875 110.975 109.448 119.475C98.7875 120.609 90.5 129.64 90.5 140.584C90.5 152.307 100.027 161.834 111.75 161.834H157.792C167.567 161.834 175.5 153.9 175.5 144.125C175.5 134.775 168.24 127.196 159.031 126.559ZM157.792 154.75H111.75C103.923 154.75 97.5833 148.411 97.5833 140.584C97.5833 133.323 103.002 127.267 110.192 126.523L113.981 126.134L115.752 122.769C119.117 116.288 125.704 112.25 133 112.25C142.279 112.25 150.283 118.838 152.09 127.94L153.152 133.252L158.571 133.642C164.096 133.996 168.417 138.636 168.417 144.125C168.417 149.969 163.635 154.75 157.792 154.75ZM138.135 126.417H127.865V137.042H118.833L133 151.209L147.167 137.042H138.135V126.417Z" fill="#6B6B68"/></g></g></g><defs><clipPath id="clip0_1421_17272"><rect width="85" height="85" fill="white" transform="translate(90.5 91)"/></clipPath></defs></svg>