<svg width="36" height="34" viewBox="0 -1 36 34" fill="none" xmlns="http://www.w3.org/2000/svg"><path d="M9.23729 14.0444C8.28893 14.0444 7.39753 13.8644 6.56307 13.5045C5.72863 13.1446 5.00278 12.6562 4.38551 12.0392C3.76824 11.4222 3.27957 10.6966 2.9195 9.86255C2.55943 9.02848 2.37939 8.13726 2.37939 7.18895C2.37939 6.24059 2.55935 5.34919 2.91926 4.51473C3.27917 3.68029 3.76763 2.95444 4.38462 2.33717C5.00161 1.7199 5.72715 1.23123 6.56124 0.871162C7.39532 0.511091 8.28653 0.331055 9.23485 0.331055C10.1832 0.331055 11.0746 0.511011 11.9091 0.870922C12.7435 1.23083 13.4694 1.71929 14.0866 2.33628C14.7039 2.95327 15.1926 3.67881 15.5526 4.5129C15.9127 5.34698 16.0927 6.23819 16.0927 7.18651C16.0927 8.13486 15.9128 9.02627 15.5529 9.86072C15.193 10.6951 14.7045 11.421 14.0875 12.0383C13.4705 12.6555 12.745 13.1442 11.9109 13.5043C11.0768 13.8644 10.1856 14.0444 9.23729 14.0444ZM9.23607 12.9618C10.848 12.9618 12.2133 12.4024 13.3321 11.2837C14.4508 10.165 15.0101 8.79965 15.0101 7.18773C15.0101 5.5758 14.4508 4.21048 13.3321 3.09175C12.2133 1.97303 10.848 1.41367 9.23607 1.41367C7.62414 1.41367 6.25882 1.97303 5.14009 3.09175C4.02137 4.21048 3.46201 5.5758 3.46201 7.18773C3.46201 8.79965 4.02137 10.165 5.14009 11.2837C6.25882 12.4024 7.62414 12.9618 9.23607 12.9618Z" fill="currentColor"/><path d="M19.9019 14.0444V0.331055H33.6152V14.0444H19.9019Z" fill="currentColor"/><path d="M4.88449 30.8051L6.02965 25.7348L2.18896 22.3245L7.2629 21.8734L9.2361 17.0918L11.2093 21.8734L16.2832 22.3245L12.4425 25.7348L13.5877 30.8051L9.2361 28.1166L4.88449 30.8051Z" fill="currentColor"/><path d="M22.8769 22.8173L26.3928 17.0918L29.9088 22.8173H22.8769ZM30.4151 30.8051C29.5759 30.8051 28.8646 30.5154 28.2809 29.9358C27.6973 29.3563 27.4055 28.6499 27.4055 27.8167C27.4055 26.9835 27.6973 26.2771 28.2809 25.6976C28.8646 25.118 29.5759 24.8283 30.4151 24.8283C31.2542 24.8283 31.9656 25.118 32.5492 25.6976C33.1329 26.2771 33.4247 26.9835 33.4247 27.8167C33.4247 28.6499 33.1329 29.3563 32.5492 29.9358C31.9656 30.5154 31.2542 30.8051 30.4151 30.8051ZM20.0923 30.442V25.1914H25.3802V30.442H20.0923ZM30.4149 29.7159C30.9504 29.7159 31.4031 29.5324 31.7729 29.1652C32.1428 28.798 32.3277 28.3486 32.3277 27.8169C32.3277 27.2852 32.1429 26.8357 31.7731 26.4684C31.4034 26.1011 30.9508 25.9175 30.4153 25.9175C29.8798 25.9175 29.4271 26.101 29.0572 26.4682C28.6874 26.8354 28.5024 27.2848 28.5024 27.8165C28.5024 28.3482 28.6873 28.7977 29.057 29.165C29.4268 29.5323 29.8794 29.7159 30.4149 29.7159ZM21.1892 29.3528H24.2833V26.2806H21.1892V29.3528ZM24.812 21.7281H27.9736L26.3928 19.2032L24.812 21.7281Z" fill="currentColor"/></svg>
