<svg width="20" height="20" viewBox="0 0 20 20" fill="none" xmlns="http://www.w3.org/2000/svg"><path d="M19.6018 5.90785L10.4589 0.132355C10.1798 -0.0441184 9.82413 -0.0441184 9.54498 0.132355L0.398849 5.90785C-0.000622168 6.16026 -0.119875 6.68861 0.132 7.08808C0.29457 7.34584 0.572649 7.48702 0.856076 7.48702C1.01223 7.48702 1.17052 7.44424 1.31223 7.35493L1.64379 7.1453L1.64218 15.4711C1.61972 15.7294 1.61331 16.6241 2.44273 17.5342C3.70746 18.9225 6.23691 19.6262 9.9605 19.6262C13.6841 19.6262 16.2135 18.9225 17.4783 17.5342C18.3077 16.6241 18.3013 15.7289 18.2788 15.4711L18.2772 7.09557L18.6874 7.3544C19.0868 7.60681 19.6152 7.48755 19.8676 7.08808C20.12 6.68861 20.0008 6.16026 19.6013 5.90785H19.6018ZM16.821 15.5957C16.8253 15.6679 16.8323 16.1422 16.3333 16.6626C15.774 17.2465 14.5648 17.9214 11.9541 18.1508C11.9669 18.0909 11.9739 18.0289 11.9739 17.9653V12.6876C11.9739 12.2673 11.6156 11.9261 11.175 11.9261H8.66529C8.22464 11.9261 7.86635 12.2678 7.86635 12.6876V17.9653C7.86635 18.0262 7.87277 18.0856 7.884 18.1428C5.33155 17.907 4.14169 17.2396 3.58874 16.6626C3.09301 16.1449 3.09675 15.6732 3.10103 15.5973L3.10691 15.5716V6.39021C3.10691 6.3362 3.1005 6.28379 3.08927 6.23299L10.0011 1.86821L16.8446 6.19128C16.8253 6.25705 16.8146 6.32711 16.8146 6.39876V15.5053L16.8087 15.5385L16.8205 15.5962L16.821 15.5957Z" fill="currentColor"/></svg>
