<svg preserveAspectRatio="none" overflow="visible" style="display: block;" width="303.5" height="107" viewBox="0 0 303.5 107" fill="none" xmlns="http://www.w3.org/2000/svg">
<g id="Fill" filter="url(#filter0_dd_0_5)">
<path fill-rule="evenodd" clip-rule="evenodd" d="M32.2883 71.2427C31.2754 69.5982 29.9872 68.2259 28.05 66.28L25 63.23L21.69 59.92C20.3 58.59 20 57.35 20 55.99C20 54.63 20.3 53.39 21.69 52.07L25 48.76L27.65 46.11C28.58 45.17 29.56 44.16 30 43.03C30.44 41.9 30.5 40.78 30.5 38.28V33H30.966C31.2793 30.5742 31.8034 28.6403 32.6799 26.9202C34.5973 23.1569 37.6569 20.0973 41.4202 18.1799C45.6984 16 51.299 16 62.5 16H251.5C262.701 16 268.302 16 272.58 18.1799C276.343 20.0973 279.403 23.1569 281.32 26.9202C283.5 31.1984 283.5 36.799 283.5 48V51C283.5 62.201 283.5 67.8016 281.32 72.0798C279.403 75.8431 276.343 78.9027 272.58 80.8201C268.302 83 262.701 83 251.5 83H62.5C51.2989 83 45.6984 83 41.4202 80.8201C37.6569 78.9027 34.5973 75.8431 32.6799 72.0798C32.5406 71.8065 32.4103 71.5279 32.2883 71.2427Z" fill="white" fill-opacity="0.7" shape-rendering="crispEdges"/>
</g>
<defs>
<filter id="filter0_dd_0_5" x="0" y="0" width="303.5" height="107" filterUnits="userSpaceOnUse" color-interpolation-filters="sRGB">
<feFlood flood-opacity="0" result="BackgroundImageFix"/>
<feColorMatrix in="SourceAlpha" type="matrix" values="0 0 0 0 0 0 0 0 0 0 0 0 0 0 0 0 0 0 127 0" result="hardAlpha"/>
<feOffset dy="4"/>
<feGaussianBlur stdDeviation="10"/>
<feComposite in2="hardAlpha" operator="out"/>
<feColorMatrix type="matrix" values="0 0 0 0 0 0 0 0 0 0 0 0 0 0 0 0 0 0 0.15 0"/>
<feBlend mode="normal" in2="BackgroundImageFix" result="effect1_dropShadow_0_5"/>
<feColorMatrix in="SourceAlpha" type="matrix" values="0 0 0 0 0 0 0 0 0 0 0 0 0 0 0 0 0 0 127 0" result="hardAlpha"/>
<feOffset/>
<feGaussianBlur stdDeviation="1.25"/>
<feComposite in2="hardAlpha" operator="out"/>
<feColorMatrix type="matrix" values="0 0 0 0 0 0 0 0 0 0 0 0 0 0 0 0 0 0 0.5 0"/>
<feBlend mode="normal" in2="effect1_dropShadow_0_5" result="effect2_dropShadow_0_5"/>
<feBlend mode="normal" in="BackgroundImageFix" in2="effect2_dropShadow_0_5" result="BackgroundImageFix"/>
<feBlend mode="normal" in="SourceGraphic" in2="BackgroundImageFix" result="shape"/>
</filter>
</defs>
</svg>
