<svg width="36" height="32" viewBox="0 0 36 32" fill="none" xmlns="http://www.w3.org/2000/svg"><path d="M16.9425 0.078125C18.359 0.078125 19.612 0.792083 20.3807 1.88757H30.7036C33.0421 1.88757 34.9378 3.83183 34.9378 6.23021V14.1917C34.9378 16.5901 33.0421 18.5343 30.7036 18.5343H18.0011C16.5846 18.5343 15.3316 17.8204 14.5629 16.7249H4.24002C1.90156 16.7249 0.00585938 14.7806 0.00585938 12.3823V4.42078C0.00585938 2.0224 1.90156 0.078125 4.24002 0.078125H16.9425Z" fill="url(#off0)"/><path d="M1.76953 7.31497C1.76953 4.91678 3.6653 2.97266 6.00383 2.97266H29.9982C32.3368 2.97266 34.2325 4.91678 34.2325 7.31497V25.4079C34.2325 27.8061 32.3368 29.7503 29.9982 29.7503H6.00384C3.6653 29.7503 1.76953 27.8061 1.76953 25.4079V7.31497Z" fill="url(#off1)"/><path d="M0.00585938 9.48758C0.00585938 7.08952 1.90154 5.14551 4.23997 5.14551H31.7617C34.1002 5.14551 35.9959 7.08951 35.9959 9.48758V27.5796C35.9959 29.9777 34.1002 31.9216 31.7617 31.9216H4.23997C1.90154 31.9216 0.00585938 29.9777 0.00585938 27.5796V9.48758Z" fill="url(#off2)"/><defs><linearGradient id="off0" x1="24.3534" y1="1.88684" x2="24.3534" y2="9.12537" gradientUnits="userSpaceOnUse"><stop stop-color="#097489"/><stop offset="1" stop-color="#1A5E6E"/></linearGradient><linearGradient id="off1" x1="18.001" y1="3.69565" x2="18.001" y2="6.4109" gradientUnits="userSpaceOnUse"><stop stop-color="white"/><stop offset="1" stop-color="#6E797D"/></linearGradient><linearGradient id="off2" x1="18.0009" y1="5.14551" x2="36.7551" y2="41.5407" gradientUnits="userSpaceOnUse"><stop stop-color="#007E96"/><stop offset="1" stop-color="#1A5E6E"/></linearGradient></defs></svg>
