<svg width="1727" height="1725" viewBox="0 0 1727 1725" fill="none" xmlns="http://www.w3.org/2000/svg">
<!-- foundation/Favicon (Figma KanDrive V0.2.1, 1427:16925). No Figma o quadrado usa Neutral/Surface/Card (branco);
     numa aba de navegador clara ele sumiria, então a cor segue Logo/Wordmark/Base: #31302D (Light) e #F5F4F2 (Dark). -->
<style>path{fill:#31302D}@media (prefers-color-scheme: dark){path{fill:#F5F4F2}}</style>
<path d="M1633.05 313.8C1603.85 222.541 1503.46 122.611 1412.2 92.9516C1047.62 -24.3172 679.383 -24.3172 314.8 92.9516C223.541 122.155 123.611 222.541 93.9516 313.8C-23.3172 678.383 -23.3172 1047.07 93.9516 1411.2C123.155 1502.46 223.541 1602.39 314.8 1632.05C679.383 1749.32 1047.62 1749.32 1412.2 1632.05C1503.46 1602.85 1603.39 1502.46 1633.05 1411.2C1750.32 1046.62 1750.32 677.927 1633.05 313.8ZM1172.64 1237.81L582.192 1340.93C560.746 1344.12 555.27 1304.43 576.716 1301.23L728.664 1278.42L1159.41 1218.64C1159.41 1218.64 1171.27 1216.36 1174.47 1220.47C1176.29 1222.75 1177.66 1227.77 1177.66 1230.96C1177.66 1235.07 1174.01 1237.35 1172.64 1237.81ZM883.805 805.234L1085.95 1050.27L1156.67 1126.01L975.065 1157.5L898.407 1073.08L745.09 880.067L726.382 898.776V1191.26L566.221 1217.27V487.65L496.407 437.914V423.768H726.382V773.294L1029.82 423.768H1232.87L883.349 804.778L883.805 805.234Z"/>
</svg>
